<svg xmlns="http://www.w3.org/2000/svg" width="58" height="36.002" viewBox="0 0 58 36.002">
  <g id="noun-arrow-1382425" transform="translate(-21 -31.999)">
    <g id="Groupe_6" data-name="Groupe 6" transform="translate(0 -952.362)">
      <path id="Tracé_23" data-name="Tracé 23" d="M79,1002.361a1.831,1.831,0,0,0-.437-1.25l-13-16a2.053,2.053,0,0,0-2.876-.3,1.969,1.969,0,0,0-.218,2.8l10.344,12.75H23a2,2,0,0,0,0,4H72.812l-10.344,12.75a2.067,2.067,0,0,0,.269,2.919,2.213,2.213,0,0,0,2.825-.419l13-16A1.688,1.688,0,0,0,79,1002.361Z" fill="#3099cc"/>
    </g>
  </g>
</svg>
