<?xml version="1.0" encoding="UTF-8"?><svg id="uuid-04e884a4-caa8-468d-894a-78f111c8c822" xmlns="http://www.w3.org/2000/svg" xmlns:xlink="http://www.w3.org/1999/xlink" viewBox="0 0 621 169.6"><defs><style>.uuid-27ada279-063d-4772-8c3a-327bba0664ec{fill:#161412;}.uuid-7efb7c98-4e7b-4a06-ba95-503d03a099b9{fill:url(#uuid-cb14cb90-d7fc-40e8-92da-d387685f80a7);}</style><linearGradient id="uuid-cb14cb90-d7fc-40e8-92da-d387685f80a7" x1="4.9" y1="84.8" x2="166" y2="84.8" gradientUnits="userSpaceOnUse"><stop offset=".2" stop-color="#8fc048"/><stop offset=".9" stop-color="#2dade4"/></linearGradient></defs><path class="uuid-7efb7c98-4e7b-4a06-ba95-503d03a099b9" d="m87.6,14.5s3,49.6,2.9,58.3l32.8-30v-11.7L92.2,0h-14.4l-31.1,31.1v10.5l35.3,31.2,5.5-58.3ZM15.8,84.2s48.5-3.5,57.8-3.7l-30.3-33.8h-12.2L0,77.8v14.4l31.1,31.1h11.8s30.7-33.4,30.7-33.4l-57.8-5.7Zm123-37.8h-11.8l-29.7,34.1,56,3.7-56,5.5,29.6,33.3h11.9l31.1-31.1v-14.4l-31.1-31.1Zm-52.1,104.9l-4.8-54.6-35.3,30.1v11.8l31.1,31.1h14.4l31.1-31.1v-12.6l-32.2-29.3-4.2,54.6Z"/><path class="uuid-27ada279-063d-4772-8c3a-327bba0664ec" d="m234.6,137.1c-5.9,0-11.3-1-16.1-3.1-4.8-2.1-9-5-12.4-8.8-3.5-3.8-6-8.3-7.8-13.5l15.9-5.9c2,4.3,4.9,7.9,8.5,10.7,3.6,2.8,7.7,4.2,12.3,4.2s8.7-1,11.5-3c2.9-2,4.3-5,4.3-8.9s-.8-4.9-2.5-6.7c-1.7-1.8-4-3.3-6.8-4.6-2.9-1.3-6.1-2.5-9.7-3.8-3.5-1.2-7-2.5-10.5-3.9-3.5-1.4-6.7-3.2-9.7-5.3-2.9-2.1-5.3-4.7-7.1-8-1.8-3.2-2.7-7.1-2.7-11.8s1.2-8.9,3.7-12.8c2.5-3.9,6.1-7,10.8-9.3,4.7-2.3,10.4-3.5,17.2-3.5s10.4.9,14.7,2.8c4.3,1.9,7.8,4.4,10.6,7.6,2.8,3.2,4.7,6.8,5.8,10.9l-15.7,5.2c-1.3-2.8-3.2-5.2-5.8-7.1-2.6-1.9-6.1-2.9-10.5-2.9s-7.4.8-9.7,2.4-3.5,3.9-3.5,6.9.8,3.8,2.3,5.2c1.6,1.4,3.7,2.7,6.3,3.8,2.6,1.1,5.6,2.3,9,3.5,3.7,1.3,7.5,2.7,11.2,4.3,3.7,1.6,7.1,3.6,10.2,5.9,3,2.3,5.5,5.2,7.3,8.6,1.9,3.4,2.8,7.6,2.8,12.5s-1.5,11.2-4.5,15.4c-3,4.2-7.1,7.5-12.1,9.7-5.1,2.2-10.9,3.4-17.3,3.4Z"/><path class="uuid-27ada279-063d-4772-8c3a-327bba0664ec" d="m286.8,135.5V40.7h17.5v94.8h-17.5Z"/><path class="uuid-27ada279-063d-4772-8c3a-327bba0664ec" d="m326.5,135.5V40.7h43.1c7.9,0,14.1,1.4,18.7,4.1,4.6,2.7,7.9,6.3,9.8,10.8,2,4.5,2.9,9.3,2.9,14.4s-.7,7.2-2.1,10.8c-1.4,3.7-3.5,6.9-6.3,9.9-2.8,2.9-6.3,5.1-10.6,6.5l18.7,38.2h-19.7l-17.9-35.9h-19.2v35.9h-17.5Zm17.5-52.4h25.9c3.3,0,5.9-.6,7.8-1.9,1.9-1.2,3.3-2.9,4.1-4.8.8-2,1.2-4.1,1.2-6.3s-.4-4-1.2-6c-.8-2-2.1-3.6-4-4.9-1.9-1.3-4.6-2-8-2h-25.9v25.9Z"/><path class="uuid-27ada279-063d-4772-8c3a-327bba0664ec" d="m419.8,135.5V40.7h17.5v94.8h-17.5Z"/><path class="uuid-27ada279-063d-4772-8c3a-327bba0664ec" d="m496.8,137.1c-7.9,0-14.7-1.5-20.3-4.4-5.6-3-9.9-7.3-12.9-12.9-3-5.6-4.4-12.5-4.4-20.4v-58.6h17.5v58.6c0,7.2,1.6,12.5,4.8,15.8s8.3,5.1,15.3,5.1,8.1-.7,11.1-2.1c3-1.4,5.2-3.6,6.7-6.7,1.5-3.1,2.2-7.1,2.2-12.1v-58.6h17.6v58.6c0,6.7-1,12.4-2.9,17.2-2,4.8-4.7,8.7-8.1,11.7s-7.5,5.3-12,6.7c-4.6,1.4-9.4,2.1-14.6,2.1Z"/><path class="uuid-27ada279-063d-4772-8c3a-327bba0664ec" d="m587.1,137.1c-5.9,0-11.3-1-16.1-3.1-4.8-2.1-9-5-12.4-8.8s-6-8.3-7.8-13.5l15.9-5.9c2,4.3,4.9,7.9,8.5,10.7,3.6,2.8,7.7,4.2,12.3,4.2s8.7-1,11.5-3c2.9-2,4.3-5,4.3-8.9s-.8-4.9-2.5-6.7c-1.7-1.8-4-3.3-6.8-4.6-2.9-1.3-6.1-2.5-9.7-3.8-3.5-1.2-7-2.5-10.5-3.9-3.5-1.4-6.7-3.2-9.7-5.3-2.9-2.1-5.3-4.7-7.1-8-1.8-3.2-2.7-7.1-2.7-11.8s1.2-8.9,3.7-12.8c2.5-3.9,6.1-7,10.8-9.3,4.7-2.3,10.4-3.5,17.2-3.5s10.4.9,14.7,2.8c4.3,1.9,7.8,4.4,10.6,7.6,2.8,3.2,4.7,6.8,5.8,10.9l-15.7,5.2c-1.3-2.8-3.2-5.2-5.8-7.1-2.6-1.9-6.1-2.9-10.5-2.9s-7.4.8-9.7,2.4c-2.3,1.6-3.5,3.9-3.5,6.9s.8,3.8,2.3,5.2c1.6,1.4,3.7,2.7,6.3,3.8,2.6,1.1,5.6,2.3,9,3.5,3.7,1.3,7.5,2.7,11.2,4.3,3.7,1.6,7.1,3.6,10.2,5.9,3,2.3,5.5,5.2,7.3,8.6,1.8,3.4,2.8,7.6,2.8,12.5s-1.5,11.2-4.5,15.4c-3,4.2-7.1,7.5-12.1,9.7-5.1,2.2-10.9,3.4-17.3,3.4Z"/></svg>