<svg id="logo-sirius" xmlns="http://www.w3.org/2000/svg" xmlns:xlink="http://www.w3.org/1999/xlink" width="290.821" height="80.3" viewBox="0 0 290.821 80.3">
  <defs>
    <linearGradient id="linear-gradient" x1="0.029" y1="0.5" x2="0.977" y2="0.5" gradientUnits="objectBoundingBox">
      <stop offset="0.2" stop-color="#8fc048"/>
      <stop offset="0.9" stop-color="#2dade4"/>
    </linearGradient>
    <clipPath id="clip-path">
      <rect id="Rectangle_57" data-name="Rectangle 57" width="199.896" height="42.888" transform="translate(0 0)" fill="none"/>
    </clipPath>
  </defs>
  <path id="Tracé_80" data-name="Tracé 80" d="M41.451,6.861s1.42,23.47,1.372,27.587l15.521-14.2V14.716L43.628,0H36.814L22.1,14.716v4.968L38.8,34.448,41.4,6.861ZM7.476,39.842s22.95-1.656,27.35-1.751L20.489,22.1H14.716L0,36.814v6.814L14.716,58.344H20.3l14.527-15.8-27.35-2.7Zm58.2-17.886H60.095L46.041,38.092l26.5,1.751-26.5,2.6L60.048,58.2h5.631L80.395,43.486V36.672L65.678,21.956ZM41.025,71.593,38.754,45.757,22.051,60v5.584L36.767,80.3h6.814L58.3,65.584V59.622L43.06,45.757,41.073,71.593Z" fill="url(#linear-gradient)"/>
  <g id="Groupe_53" data-name="Groupe 53" transform="translate(90.925 18.706)">
    <g id="Groupe_52" data-name="Groupe 52" transform="translate(0 0)" clip-path="url(#clip-path)">
      <path id="Tracé_92" data-name="Tracé 92" d="M15.876,42.888a17.679,17.679,0,0,1-7.049-1.362A15.481,15.481,0,0,1,3.391,37.66,16.3,16.3,0,0,1,0,31.751l6.96-2.577a12.376,12.376,0,0,0,3.717,4.665,8.629,8.629,0,0,0,5.376,1.822,8.578,8.578,0,0,0,5.05-1.333,4.458,4.458,0,0,0,1.881-3.88,4.073,4.073,0,0,0-1.111-2.917,9.339,9.339,0,0,0-2.991-2.014q-1.882-.844-4.25-1.644-2.281-.77-4.591-1.718A20.817,20.817,0,0,1,5.805,19.83a10.479,10.479,0,0,1-3.1-3.48A10.462,10.462,0,0,1,1.54,11.2,10.182,10.182,0,0,1,3.169,5.6,11.44,11.44,0,0,1,7.893,1.525,16.855,16.855,0,0,1,15.4,0a15.816,15.816,0,0,1,6.413,1.229A12.972,12.972,0,0,1,26.45,4.561,11.779,11.779,0,0,1,29,9.33l-6.872,2.281a7.761,7.761,0,0,0-2.532-3.125,7.588,7.588,0,0,0-4.606-1.259,7.259,7.259,0,0,0-4.235,1.066,3.48,3.48,0,0,0-1.511,3.021,2.955,2.955,0,0,0,1.022,2.266,9.739,9.739,0,0,0,2.755,1.674q1.732.741,3.924,1.51,2.458.83,4.9,1.881a21.269,21.269,0,0,1,4.443,2.562A11.539,11.539,0,0,1,29.5,24.954a11.316,11.316,0,0,1,1.214,5.464,11.393,11.393,0,0,1-1.97,6.753,12.5,12.5,0,0,1-5.317,4.25,18.645,18.645,0,0,1-7.553,1.466" transform="translate(0 0)" fill="#161615"/>
      <path id="Tracé_93" data-name="Tracé 93" d="M91.732,43.1V26.928L76.538,1.634h8.649l10.337,17.3,10.367-17.3h8.589L99.344,26.869V43.1Z" transform="translate(-43.247 -0.923)" fill="#161615"/>
      <path id="Tracé_94" data-name="Tracé 94" d="M174.524,43.1V1.635h18.867a15.971,15.971,0,0,1,8.19,1.792,10.247,10.247,0,0,1,4.295,4.725,15.5,15.5,0,0,1,1.288,6.308,13.388,13.388,0,0,1-.9,4.739,12.716,12.716,0,0,1-2.74,4.324,11.02,11.02,0,0,1-4.621,2.843L207.075,43.1h-8.619l-7.849-15.7H182.2V43.1ZM182.2,20.176H193.51a6.241,6.241,0,0,0,3.421-.815,4.529,4.529,0,0,0,1.792-2.118,7.186,7.186,0,0,0,.029-5.361A4.627,4.627,0,0,0,197,9.721a6.1,6.1,0,0,0-3.495-.859H182.2Z" transform="translate(-98.612 -0.924)" fill="#161615"/>
      <path id="Tracé_95" data-name="Tracé 95" d="M287.5,43.811l-10.6-23.1q-.207-.444-.444-1.037t-.415-1.185q.029.474.045,1.126t.015,1.155V43.1h-7.671V1.634H276.1l10.515,23.518q.3.652.548,1.288t.488,1.318q.237-.681.474-1.333t.5-1.273L299.348,1.634h7.2V43.1h-7.671V20.708q0-.533.015-1.184t.015-1.067q-.178.533-.43,1.14t-.489,1.11Z" transform="translate(-151.67 -0.923)" fill="#161615"/>
      <path id="Tracé_96" data-name="Tracé 96" d="M370.092,43.1,385.879,1.634h7.286L409.011,43.1h-8.264l-3.288-8.767H381.613L378.385,43.1ZM384.1,27.313h10.811l-4.146-11.107q-.208-.5-.444-1.125t-.445-1.259q-.208-.637-.355-1.111-.149.474-.355,1.111t-.445,1.259q-.237.622-.444,1.125Z" transform="translate(-209.115 -0.923)" fill="#161615"/>
    </g>
  </g>
</svg>
