<svg id="noun-info-200096" xmlns="http://www.w3.org/2000/svg" width="30.424" height="30.425" viewBox="0 0 30.424 30.425">
  <path id="Tracé_24" data-name="Tracé 24" d="M44.7,14.113A2.231,2.231,0,0,0,43.39,16.34a2.01,2.01,0,0,0,.588,1.648,1.228,1.228,0,0,0,1.5.151,2.055,2.055,0,0,0,1.1-1.479C46.98,15.067,45.946,13.668,44.7,14.113Z" transform="translate(-27.832 -8.999)" fill="#3099cc"/>
  <path id="Tracé_25" data-name="Tracé 25" d="M36.1,29.228a5.676,5.676,0,0,0-3.056,2.36c-.694.927-1,1.576-.863,1.826a.319.319,0,0,0,.224.178,5.011,5.011,0,0,0,.81-1.033,10.482,10.482,0,0,1,.953-1.248c.534-.453.954-.151.757.562-.044.188-.526,1.781-1.051,3.545C32.735,39.207,32.5,40.2,32.5,41.3c0,.686.026.846.2,1.122.411.667,1.31.749,2.387.225,1.47-.732,3.58-3.252,3.49-4.178-.016-.179-.07-.285-.149-.285-.135,0-.259.152-1.185,1.435-.8,1.1-1.317,1.284-1.317.455,0-.2.463-2,1.023-4.01s1.07-3.908,1.123-4.229a3.458,3.458,0,0,0-.161-2A1.62,1.62,0,0,0,36.1,29.228Z" transform="translate(-20.624 -18.716)" fill="#3099cc"/>
  <path id="Tracé_26" data-name="Tracé 26" d="M15.853,30.708A14.854,14.854,0,1,1,30.707,15.853,14.871,14.871,0,0,1,15.853,30.708Zm0-28.639A13.785,13.785,0,1,0,29.637,15.853,13.8,13.8,0,0,0,15.853,2.069Z" transform="translate(-0.641 -0.641)" fill="#3099cc"/>
  <path id="Tracé_27" data-name="Tracé 27" d="M15.212,30.425A15.212,15.212,0,1,1,30.424,15.211,15.23,15.23,0,0,1,15.212,30.425Zm0-29.708a14.5,14.5,0,1,0,14.5,14.494A14.511,14.511,0,0,0,15.212.717Zm0,28.638A14.143,14.143,0,1,1,29.354,15.211,14.159,14.159,0,0,1,15.212,29.355Zm0-27.569A13.426,13.426,0,1,0,28.637,15.211,13.441,13.441,0,0,0,15.212,1.786Z" fill="#3099cc"/>
</svg>
