<?xml version="1.0" encoding="UTF-8"?><svg id="uuid-dd6221c3-61ab-41d6-ad41-a7443bde787a" xmlns="http://www.w3.org/2000/svg" xmlns:xlink="http://www.w3.org/1999/xlink" viewBox="0 0 169.9 169.6"><defs><style>.uuid-27500f8e-4694-4355-9898-8ffe81b9275d{fill:url(#uuid-6bac135d-7509-41ec-b638-7ac45fd8acaa);}</style><linearGradient id="uuid-6bac135d-7509-41ec-b638-7ac45fd8acaa" x1="4.9" y1="84.8" x2="166" y2="84.8" gradientUnits="userSpaceOnUse"><stop offset=".2" stop-color="#8fc048"/><stop offset=".9" stop-color="#2dade4"/></linearGradient></defs><path class="uuid-27500f8e-4694-4355-9898-8ffe81b9275d" d="m87.6,14.5s3,49.6,2.9,58.3l32.8-30v-11.7L92.2,0h-14.4l-31.1,31.1v10.5l35.3,31.2,5.5-58.3ZM15.8,84.2s48.5-3.5,57.8-3.7l-30.3-33.8h-12.2L0,77.8v14.4l31.1,31.1h11.8s30.7-33.4,30.7-33.4l-57.8-5.7Zm123-37.8h-11.8l-29.7,34.1,56,3.7-56,5.5,29.6,33.3h11.9l31.1-31.1v-14.4l-31.1-31.1Zm-52.1,104.9l-4.8-54.6-35.3,30.1v11.8l31.1,31.1h14.4l31.1-31.1v-12.6l-32.2-29.3-4.2,54.6Z"/></svg>