<svg id="Groupe_36" data-name="Groupe 36" xmlns="http://www.w3.org/2000/svg" xmlns:xlink="http://www.w3.org/1999/xlink" width="45.482" height="42.755" viewBox="0 0 45.482 42.755">
  <defs>
    <clipPath id="clip-path">
      <rect id="Rectangle_46" data-name="Rectangle 46" width="45.482" height="42.755" fill="none"/>
    </clipPath>
  </defs>
  <g id="Groupe_35" data-name="Groupe 35" clip-path="url(#clip-path)">
    <path id="Tracé_54" data-name="Tracé 54" d="M45.325,43.28H1.682A.682.682,0,0,1,1.13,42.2l10.911-15a.682.682,0,0,1,.551-.281H34.414a.682.682,0,0,1,.551.281l10.911,15a.682.682,0,0,1-.552,1.083M16.213,41.915H30.793l-2.045-7.5H18.259ZM34.066,28.277H28.487l1.3,4.773h7.749Zm-6.992,0H19.932l-1.3,4.773h9.745Zm-8.555,0H12.94L9.468,33.05h7.749Zm13.688,13.64H43.985l-5.455-7.5H30.161Zm-29.186,0H14.8l2.045-7.5H8.48ZM35.1,22.14a.682.682,0,1,1-1.364,0,10.229,10.229,0,0,0-20.457-.2c0,.067,0,.135,0,.2a.682.682,0,1,1-1.364,0,11.593,11.593,0,0,1,23.186,0M24.185,5.774a.682.682,0,0,1-1.364,0V1.682a.682.682,0,0,1,1.364,0ZM35.559,11.05a.682.682,0,0,1-.964-.964l2.894-2.894a.682.682,0,0,1,.964.964Zm4.311,11.773a.682.682,0,1,1,0-1.364h4.092a.682.682,0,0,1,0,1.364ZM7.137,21.458a.682.682,0,1,1,0,1.364H3.045a.682.682,0,1,1,0-1.364Zm5.276-11.373a.682.682,0,0,1-.964.964L8.555,8.155a.682.682,0,0,1,.964-.964Z" transform="translate(-0.762 -0.762)" fill="#fff"/>
    <path id="Tracé_55" data-name="Tracé 55" d="M44.562,42.755H.919a.92.92,0,0,1-.743-1.461l10.911-15a.922.922,0,0,1,.743-.379H33.652a.923.923,0,0,1,.743.379l10.911,15a.92.92,0,0,1-.744,1.461M11.83,26.388a.447.447,0,0,0-.359.183L.56,41.574a.445.445,0,0,0,.359.706H44.562a.445.445,0,0,0,.36-.706l-10.911-15a.446.446,0,0,0-.359-.183Zm31.859,15H31.263l-2.175-7.977h8.8Zm-12.063-.475h11.13l-5.11-7.026H29.71Zm-17.4.475H1.792l5.8-7.977h8.8Zm-11.5-.475H13.859l1.916-7.026H7.839Zm27.617.474h-15.2l2.176-7.977H28.167Zm-14.581-.475H29.72L27.8,33.889H17.678Zm21.479-8.39h-8.4l-1.43-5.248h6.011Zm-8.034-.475h7.1l-3.124-4.3H28.036Zm-1.281.475H17.559l1.43-5.248h7.5Zm-9.745-.475H27.3l-1.174-4.3H19.351Zm-1.545.475h-8.4l3.817-5.248h6.011ZM9.172,32.05h7.1l1.173-4.3H12.3ZM43.2,22.3H39.107a.92.92,0,1,1,0-1.84H43.2a.92.92,0,0,1,0,1.84m-4.092-1.364a.445.445,0,1,0,0,.889H43.2a.445.445,0,0,0,0-.889ZM33.651,22.3a.921.921,0,0,1-.92-.92,10,10,0,0,0-9.892-10.092h-.1a10,10,0,0,0-9.99,9.893c0,.066,0,.132,0,.2a.92.92,0,1,1-1.839,0,11.83,11.83,0,1,1,23.661,0,.921.921,0,0,1-.92.92M22.739,10.81h.105A10.478,10.478,0,0,1,33.206,21.38a.445.445,0,0,0,.889,0,11.355,11.355,0,0,0-22.711,0,.444.444,0,1,0,.889,0c0-.067,0-.135,0-.2A10.479,10.479,0,0,1,22.739,10.81M6.374,22.3H2.282a.92.92,0,0,1,0-1.84H6.374a.92.92,0,0,1,0,1.84M2.282,20.934a.445.445,0,0,0,0,.889H6.374a.445.445,0,0,0,0-.889ZM34.331,10.71H34.3a.92.92,0,0,1-.641-1.548l2.9-2.9a.92.92,0,0,1,1.306,1.295l-2.9,2.9a.913.913,0,0,1-.628.249m2.861-4.226a.442.442,0,0,0-.3.12L34,9.492a.445.445,0,0,0,.315.743.421.421,0,0,0,.316-.118l2.891-2.89a.444.444,0,0,0-.33-.743M11.153,10.708a.917.917,0,0,1-.629-.248l-2.9-2.9A.92.92,0,0,1,8.919,6.256l2.9,2.9a.919.919,0,0,1-.671,1.548M8.292,6.482a.445.445,0,0,0-.326.749l2.888,2.888a.445.445,0,0,0,.625-.631L8.589,6.6a.432.432,0,0,0-.3-.115m14.448-.551a.921.921,0,0,1-.92-.92V.92a.92.92,0,1,1,1.84,0V5.012a.921.921,0,0,1-.92.92m0-5.456A.445.445,0,0,0,22.3.92V5.012a.445.445,0,0,0,.889,0V.92a.445.445,0,0,0-.445-.445" transform="translate(0)" fill="#fff"/>
  </g>
</svg>
